<svg width="42" height="35" viewBox="0 0 42 35" fill="none" xmlns="http://www.w3.org/2000/svg">
<g id="Union">
<path fill-rule="evenodd" clip-rule="evenodd" d="M28.1572 0C29.2814 0 30.1929 0.922835 30.1929 2.06121V8.57029H36.7236C36.6938 12.6505 36.7047 17.9222 36.7147 22.7125C36.7189 24.7452 36.723 26.6914 36.7236 28.423C38.7825 29.6357 40.6822 31.2675 42 33.8299L41.0341 33.0961C38.7889 31.3908 35.1337 29.923 31.8145 29.3936C29.8939 29.0874 26.1886 29.3825 24.227 29.998L23.7966 30.133L24.3857 30.4795C25.2189 30.9696 25.9985 31.7461 26.2306 32.3172C26.4505 32.8582 26.5103 32.8725 27.7472 32.6793C29.1857 32.4548 33.9731 32.563 33.4062 32.8071C33.2934 32.8557 32.6616 32.9333 32.002 32.9796C29.8292 33.1321 27.0674 33.6453 25.4811 34.1914C25.3102 34.2502 25.1737 34.0837 24.9178 33.5043C24.1169 31.6912 22.2598 30.1182 20.1391 29.4571L19.561 29.2768L20.2355 29.3457C20.9479 29.4183 22.368 29.6842 22.8384 29.8328C23.0786 29.9088 23.1026 29.8801 23.0083 29.629C22.4981 28.2695 21.0224 26.714 19.4437 25.8716C18.0327 25.1187 16.7953 24.8538 15.0185 24.9246C13.6444 24.9793 11.9914 25.3011 11.9914 25.514C11.9914 25.5666 12.089 25.9553 12.2081 26.3778C12.591 27.7344 12.7668 29.1762 12.6133 29.7019C12.527 29.9976 12.4652 30.0803 12.4561 29.9126C12.4271 29.3816 11.6795 27.8683 10.9765 26.918C8.92324 24.1424 5.66458 22.7038 1.43027 22.7038H0C0.00256675 18.8605 0.00595147 12.4136 0.00359726 8.57029H6.35003V2.06121C6.35003 0.922835 7.26145 0 8.38575 0H28.1572ZM9.13575 8.57029V2.8206H27.4072V8.57029H9.13575ZM17.9469 12.6674C17.6392 12.8372 17.3875 13.0303 17.3875 13.0967C17.3875 13.163 17.8291 13.5924 18.3689 14.0508C19.7437 15.2187 21.4592 16.9793 21.4051 17.1671C21.3801 17.2537 20.5901 17.7731 19.6497 18.3215L17.9397 19.3185L16.4655 19.166C15.0981 19.0245 14.9693 19.0295 14.6905 19.2344C14.2459 19.5611 14.3123 19.7087 15.1318 20.2161C15.7813 20.6184 15.8795 20.7376 15.9187 21.1725C15.9581 21.6098 16.0117 21.6738 16.3653 21.707C16.715 21.7398 16.7876 21.8231 16.9273 22.3519C17.0155 22.6859 17.0877 23.0677 17.0877 23.2005C17.0877 23.5202 17.4439 23.6167 17.9703 23.4396C18.3323 23.3179 18.464 23.1338 18.8295 22.2391L19.2612 21.1825L21.2098 20.3661C22.2815 19.917 23.1999 19.5473 23.2507 19.5445C23.4127 19.5355 24.2953 21.2518 24.9692 22.8863C25.3667 23.8504 25.707 24.4833 25.8403 24.5061C25.9603 24.5268 26.3361 24.4287 26.6753 24.2883L27.2918 24.0328L27.1905 23.1251C27.0923 22.245 27.1011 22.2099 27.4846 21.965C28.0005 21.6356 27.9833 21.4483 27.4036 21.08L26.9273 20.7773L27.4036 20.4517C28.0128 20.0356 28.0036 19.8501 27.3572 19.5101C26.8628 19.2501 26.8343 19.198 26.8325 18.5515L26.8307 17.8679L28.5704 17.0342C30.4223 16.1467 31.3121 15.471 31.8067 14.5766C31.965 14.2902 32.0528 13.9492 32.0017 13.8186C31.8673 13.4746 30.949 13.3047 30.0077 13.4496C28.9345 13.6149 28.3767 13.8248 26.7793 14.6651C26.0093 15.07 25.3039 15.4014 25.2118 15.4014C25.1197 15.4014 24.7447 15.2545 24.3784 15.0749C23.8314 14.8066 23.6966 14.6677 23.6236 14.2971C23.5232 13.787 23.2563 13.6502 22.6976 13.8226C22.1352 13.9963 22.0342 13.9715 22.0342 13.6599C22.0342 13.5054 21.9442 13.2791 21.8344 13.157C21.658 12.9611 21.5698 12.9523 21.0843 13.0824C20.5666 13.2212 20.4838 13.2045 19.6729 12.7975C19.1991 12.5598 18.7428 12.3639 18.6589 12.3621C18.575 12.3602 18.2546 12.4976 17.9469 12.6674Z" fill="#F56C49"/>
<path d="M8.63321 30.4902C12.1233 30.8062 14.5754 32.1608 15.6375 34.3596C16.0338 35.1801 15.946 35.1991 15.0267 34.4915C12.7227 32.7183 10.1239 31.6072 6.52032 30.8549C3.36597 30.1965 7.70444 30.4061 8.63321 30.4902Z" fill="#F56C49"/>
</g>
</svg>
